<svg width="261" height="112" viewBox="0 0 261 112" fill="none" xmlns="http://www.w3.org/2000/svg">
<g clip-path="url(#clip0_1338_300)">
<path d="M51.3273 9.48569H49.4859C49.3133 9.48569 49.1982 9.48569 49.1982 9.37141C49.2558 9.25712 49.3133 9.08569 49.3708 8.97141C49.3708 8.91426 49.4859 8.85712 49.6585 8.85712H51.1546C51.2122 8.85712 51.2697 8.85712 51.3273 8.85712C51.3848 8.85712 51.3848 8.91426 51.4423 8.97141C51.4999 9.08569 51.5574 9.25712 51.615 9.37141C51.5574 9.42855 51.4423 9.48569 51.3273 9.48569ZM55.1826 7.48569C55.0675 7.31426 54.8373 7.14283 54.6072 7.02855C54.377 6.91426 54.1468 6.85712 53.9166 6.91426H46.9541C46.2636 6.91426 45.9183 7.08569 45.6882 7.48569C45.3429 8.05712 45.0552 8.68569 44.8826 9.31426C44.8826 9.71426 45.458 9.88569 46.1485 9.88569H54.7798C55.4703 9.88569 55.9882 9.59998 56.0457 9.31426C55.8155 8.68569 55.5278 8.05712 55.1826 7.48569Z" fill="#292C33"/>
<path d="M53.8016 1.94286H49.8312V1.48571H53.8016V1.94286ZM53.8016 2.91429H49.8312V2.45714H53.8016V2.91429ZM53.8016 3.82857H49.8312V3.37143H53.8016V3.82857ZM53.8016 4.74286H47.1268V4.34286H53.7441V4.74286H53.8016ZM47.1268 1.48571H49.2558V3.77143H47.1268V1.48571ZM53.9743 0H46.9542C46.7815 0 46.6089 0.0571429 46.4938 0.114286C46.3212 0.171429 46.2061 0.285714 46.091 0.4C45.9759 0.514286 45.8609 0.628571 45.8033 0.8C45.7458 0.971429 45.6882 1.08571 45.6882 1.25714V5.14286C45.6882 5.48571 45.8033 5.77143 46.0335 6C46.2637 6.22857 46.6089 6.34286 46.8966 6.34286H53.9167C54.0893 6.34286 54.262 6.28571 54.3771 6.22857C54.5497 6.17143 54.6648 6.05714 54.7799 5.94286C54.8949 5.82857 55.01 5.71429 55.0676 5.54286C55.1251 5.37143 55.1826 5.25714 55.1826 5.08571V1.25714C55.1826 1.08571 55.1251 0.914286 55.0676 0.8C55.01 0.628571 54.8949 0.514286 54.7799 0.4C54.6648 0.285714 54.5497 0.171429 54.3771 0.114286C54.262 0.0571429 54.1469 0 53.9743 0Z" fill="#292C33"/>
<path d="M51.3273 62.2857H49.4859C49.3133 62.2857 49.1982 62.2857 49.1982 62.1715C49.2558 62.0572 49.3133 61.8857 49.3708 61.7715C49.3708 61.7143 49.4859 61.6572 49.6585 61.6572H51.1546C51.2122 61.6572 51.2697 61.6572 51.3273 61.6572C51.3848 61.6572 51.3848 61.7143 51.4423 61.7715C51.4999 61.8857 51.5574 62.0572 51.615 62.1715C51.5574 62.2286 51.4423 62.2857 51.3273 62.2857ZM55.1826 60.2857C55.0675 60.1143 54.8373 59.9429 54.6647 59.8286C54.4345 59.7143 54.2044 59.6572 53.9742 59.7143H46.9541C46.2636 59.7143 45.9183 59.9429 45.6882 60.2857C45.3429 60.8572 45.0552 61.4857 44.8826 62.1143C44.8826 62.5143 45.458 62.6857 46.1485 62.6857H54.7798C55.4703 62.6857 55.9882 62.4 56.0457 62.1143C55.8155 61.4857 55.5278 60.8572 55.1826 60.2857Z" fill="#292C33"/>
<path d="M53.8017 54.7429H49.8313V54.2858H53.8017V54.7429ZM53.8017 55.7143H49.8313V55.2572H53.8017V55.7143ZM53.8017 56.6286H49.8313V56.1715H53.8017V56.6286ZM53.8017 57.5429H47.1269V57.1429H53.7442V57.5429H53.8017ZM47.1269 54.2858H49.2559V56.5715H47.1269V54.2858ZM53.9743 52.8H46.9542C46.609 52.8 46.3213 52.9143 46.0911 53.1429C45.8609 53.3715 45.7458 53.7143 45.7458 54V57.8858C45.7458 58.0572 45.8034 58.2286 45.8609 58.3429C45.9185 58.5143 46.0336 58.6286 46.1486 58.7429C46.2637 58.8572 46.3788 58.9715 46.5514 59.0286C46.7241 59.0858 46.8391 59.1429 47.0118 59.1429H54.0319C54.2045 59.1429 54.3771 59.0858 54.4922 59.0286C54.6648 58.9715 54.7799 58.8572 54.895 58.7429C55.0101 58.6286 55.1252 58.5143 55.1827 58.3429C55.2403 58.1715 55.2978 58.0572 55.2978 57.8858V54C55.2978 53.8286 55.2403 53.6572 55.1827 53.5429C55.1252 53.3715 55.0101 53.2572 54.895 53.1429C54.7799 53.0286 54.6648 52.9143 54.4922 52.8572C54.262 52.8572 54.147 52.8 53.9743 52.8Z" fill="#292C33"/>
<path d="M51.3273 111.086H49.4859C49.3133 111.086 49.1982 111.086 49.1982 110.972C49.2558 110.857 49.3133 110.686 49.3708 110.572C49.3708 110.514 49.4859 110.457 49.6585 110.457H51.1546C51.2122 110.457 51.2697 110.457 51.3273 110.457C51.3848 110.457 51.3848 110.514 51.4423 110.572C51.4999 110.686 51.5574 110.857 51.615 110.972C51.5574 111.029 51.4423 111.086 51.3273 111.086ZM55.1826 109.086C55.0675 108.914 54.8373 108.743 54.6072 108.629C54.377 108.514 54.1468 108.457 53.9166 108.514H46.9541C46.2636 108.514 45.9183 108.743 45.6882 109.086C45.3429 109.657 45.0552 110.286 44.8826 110.914C44.8826 111.314 45.458 111.486 46.1485 111.486H54.7798C55.4703 111.486 55.9882 111.2 56.0457 110.914C55.8155 110.286 55.5278 109.657 55.1826 109.086Z" fill="#292C33"/>
<path d="M53.8016 103.543H49.8312V103.086H53.8016V103.543ZM53.8016 104.514H49.8312V104.114H53.8016V104.514ZM53.8016 105.429H49.8312V104.972H53.8016V105.429ZM53.8016 106.4H47.1268V105.943H53.7441V106.4H53.8016ZM47.1268 103.143H49.2558V105.429H47.1268V103.143ZM53.9743 101.6H46.9542C46.7815 101.6 46.6089 101.657 46.4938 101.714C46.3212 101.772 46.2061 101.886 46.091 102C45.9759 102.114 45.8609 102.229 45.8033 102.4C45.7458 102.572 45.6882 102.686 45.6882 102.857V106.743C45.6882 107.086 45.8033 107.372 46.0335 107.6C46.2637 107.829 46.6089 107.943 46.8966 107.943H53.9167C54.0893 107.943 54.262 107.886 54.3771 107.829C54.5497 107.772 54.6648 107.657 54.7799 107.543C54.8949 107.429 55.01 107.314 55.0676 107.143C55.1251 106.972 55.1826 106.857 55.1826 106.686V102.857C55.1826 102.686 55.1251 102.514 55.0676 102.4C55.01 102.229 54.8949 102.114 54.7799 102C54.6648 101.886 54.5497 101.772 54.3771 101.714C54.262 101.657 54.1469 101.6 53.9743 101.6Z" fill="#292C33"/>
<path d="M6.50223 35.4286H4.60335C4.43073 35.4286 4.31564 35.4286 4.31564 35.3143C4.37318 35.2 4.43073 35.0286 4.48827 34.9143C4.48827 34.8571 4.60335 34.8 4.77598 34.8H6.27207C6.32961 34.8 6.38715 34.8 6.44469 34.8C6.50223 34.8 6.50223 34.8571 6.55978 34.9143C6.61732 35.0286 6.67486 35.1428 6.7324 35.3143C6.78994 35.3714 6.67486 35.4286 6.50223 35.4286ZM10.4151 33.4286C10.3 33.2571 10.0698 33.0857 9.89721 32.9714C9.66704 32.8571 9.43687 32.8 9.2067 32.8571H2.12905C1.43855 32.8571 1.0933 33.0857 0.863129 33.4286C0.517877 34 0.230168 34.6286 0 35.2571C0 35.6571 0.575419 35.8286 1.26592 35.8286H9.95475C10.6453 35.8286 11.1631 35.5428 11.2207 35.2571C11.048 34.6286 10.7603 34 10.4151 33.4286Z" fill="#292C33"/>
<path d="M8.97645 27.8857H5.00605V27.4286H8.97645V27.8857ZM8.97645 28.8572H5.00605V28.4572H8.97645V28.8572ZM8.97645 29.7714H5.00605V29.3714H8.97645V29.7714ZM8.97645 30.6857H2.35913V30.2857H8.97645V30.6857ZM2.30158 27.4857H4.37309V29.7714H2.30158V27.4857ZM9.14907 25.9429H2.12896C1.95633 25.9429 1.78371 26 1.66862 26.0572C1.496 26.1143 1.38091 26.2286 1.26583 26.3429C1.15075 26.4572 1.03566 26.5714 0.978121 26.7429C0.920579 26.9143 0.863037 27.0286 0.863037 27.2V31.0857C0.863037 31.2572 0.920579 31.4286 0.978121 31.5429C1.03566 31.7143 1.15075 31.8286 1.26583 31.9429C1.38091 32.0572 1.496 32.1714 1.66862 32.2286C1.84125 32.2857 1.95633 32.3429 2.12896 32.3429H9.14907C9.49432 32.3429 9.78203 32.2286 10.0122 32C10.2424 31.7714 10.3575 31.4286 10.3575 31.1429V27.2572C10.3575 27.0857 10.2999 26.9143 10.2424 26.8C10.1848 26.6286 10.0697 26.5143 9.95466 26.4C9.83957 26.2857 9.72449 26.1714 9.55186 26.1143C9.49432 26 9.3217 25.9429 9.14907 25.9429Z" fill="#292C33"/>
<path d="M97.9939 34.857H96.0951C95.9224 34.857 95.8073 34.857 95.8073 34.7427C95.8649 34.6285 95.9224 34.457 95.98 34.3427C95.98 34.2856 96.0951 34.2285 96.2677 34.2285H97.7638C97.8213 34.2285 97.8788 34.2285 97.9364 34.2285C97.9939 34.2285 97.9939 34.2856 98.0515 34.3427C98.109 34.457 98.1666 34.5713 98.2241 34.7427C98.2816 34.7999 98.1666 34.857 97.9939 34.857ZM101.907 32.857C101.792 32.6856 101.562 32.5142 101.389 32.3999C101.159 32.2856 100.929 32.2285 100.698 32.2856H93.6207C92.9302 32.2856 92.585 32.5142 92.3548 32.857C92.0096 33.4285 91.7219 34.057 91.4917 34.6856C91.4917 35.0856 92.0671 35.257 92.7576 35.257H101.446C102.137 35.257 102.655 34.9713 102.712 34.6856C102.54 34.057 102.252 33.4285 101.907 32.857Z" fill="#292C33"/>
<path d="M100.468 27.3142H96.4978V26.8571H100.468V27.3142ZM100.468 28.2856H96.4978V27.8856H100.468V28.2856ZM100.468 29.1999H96.4978V28.7999H100.468V29.1999ZM100.468 30.1142H93.8508V29.7142H100.468V30.1142ZM93.7933 26.9142H95.8648V29.1999H93.7933V26.9142ZM100.641 25.3713H93.6207C93.448 25.3713 93.2754 25.4285 93.1603 25.4856C92.9877 25.5428 92.8726 25.6571 92.7575 25.7713C92.6424 25.8856 92.5274 25.9999 92.4698 26.1713C92.4123 26.3428 92.3547 26.4571 92.3547 26.6285V30.5142C92.3547 30.6856 92.4123 30.8571 92.4698 30.9713C92.5274 31.1428 92.6424 31.2571 92.7575 31.3713C92.8726 31.4856 92.9877 31.5999 93.1603 31.6571C93.3329 31.7142 93.448 31.7713 93.6207 31.7713H100.641C100.986 31.7713 101.274 31.6571 101.504 31.4285C101.734 31.1999 101.849 30.8571 101.849 30.5713V26.6856C101.849 26.5142 101.792 26.3428 101.734 26.2285C101.677 26.0571 101.561 25.9428 101.446 25.8285C101.331 25.7142 101.216 25.5999 101.044 25.5428C100.986 25.4285 100.813 25.3713 100.641 25.3713Z" fill="#292C33"/>
<path d="M6.50223 83.1429H4.60335C4.43073 83.1429 4.31564 83.0858 4.31564 83.0286C4.37318 82.9143 4.43073 82.7429 4.48827 82.6286C4.48827 82.5715 4.60335 82.5143 4.77598 82.5143H6.27207C6.32961 82.5143 6.38715 82.5143 6.44469 82.5143C6.50223 82.5143 6.50223 82.5715 6.55978 82.6286C6.61732 82.7429 6.67486 82.8572 6.7324 83.0286C6.78994 83.0858 6.67486 83.1429 6.50223 83.1429ZM10.4151 81.1429C10.3 80.9715 10.0698 80.8001 9.89721 80.6858C9.66704 80.5715 9.43687 80.5143 9.2067 80.5715H2.12905C1.43855 80.5715 1.0933 80.7429 0.863129 81.1429C0.517877 81.7143 0.230168 82.3429 0 82.9715C0 83.3715 0.575419 83.5429 1.26592 83.5429H9.95475C10.6453 83.5429 11.1631 83.2572 11.2207 82.9715C11.048 82.2858 10.7603 81.7143 10.4151 81.1429Z" fill="#292C33"/>
<path d="M8.97644 75.6572H5.00605V75.2001H8.97644V75.6572ZM8.97644 76.5715H5.00605V76.1144H8.97644V76.5715ZM8.97644 77.4858H5.00605V77.0286H8.97644V77.4858ZM8.97644 78.4572H2.35913V78.0001H8.97644V78.4572ZM2.30158 75.2001H4.37309V77.4858H2.30158V75.2001ZM9.14907 73.7144H2.12896C1.95633 73.7144 1.78371 73.7715 1.66862 73.8286C1.496 73.8858 1.38091 74.0001 1.26583 74.1144C1.15075 74.2286 1.03566 74.3429 0.978121 74.5144C0.920579 74.6858 0.863037 74.8001 0.863037 74.9715V78.8572C0.863037 79.0286 0.920579 79.2001 0.978121 79.3144C1.03566 79.4858 1.15075 79.6001 1.26583 79.7144C1.38091 79.8286 1.496 79.9429 1.66862 80.0001C1.84125 80.0572 1.95633 80.1144 2.12896 80.1144H9.14907C9.3217 80.1144 9.49432 80.0572 9.60941 80.0001C9.78203 79.9429 9.89711 79.8286 10.0122 79.7144C10.1273 79.6001 10.2424 79.4858 10.2999 79.3144C10.3574 79.1429 10.415 79.0286 10.415 78.8572V74.9715C10.415 74.6286 10.2999 74.3429 10.0697 74.1144C9.78203 73.8286 9.49432 73.7144 9.14907 73.7144Z" fill="#292C33"/>
<path d="M97.9939 84.2857H96.0951C95.9224 84.2857 95.8073 84.2286 95.8073 84.1715C95.8649 84.0572 95.9224 83.8857 95.98 83.7715C95.98 83.7143 96.0951 83.6572 96.2677 83.6572H97.7638C97.8213 83.6572 97.8788 83.6572 97.9364 83.6572C97.9939 83.6572 97.9939 83.7143 98.0515 83.7715C98.109 83.8857 98.1666 84 98.2241 84.1715C98.2816 84.2286 98.1666 84.2857 97.9939 84.2857ZM101.907 82.2857C101.792 82.1143 101.562 81.9429 101.389 81.8286C101.159 81.7143 100.929 81.6572 100.698 81.7143H93.6207C92.9302 81.7143 92.585 81.8857 92.3548 82.2857C92.0096 82.8572 91.7219 83.4857 91.4917 84.1143C91.4917 84.5143 92.0671 84.6857 92.7576 84.6857H101.446C102.137 84.6857 102.655 84.4 102.712 84.1143C102.54 83.4286 102.252 82.8572 101.907 82.2857Z" fill="#292C33"/>
<path d="M100.468 76.8H96.4978V76.3429H100.468V76.8ZM100.468 77.7143H96.4978V77.2572H100.468V77.7143ZM100.468 78.6286H96.4978V78.1715H100.468V78.6286ZM100.468 79.6H93.8508V79.1429H100.468V79.6ZM93.7933 76.3429H95.8648V78.6286H93.7933V76.3429ZM100.641 74.8572H93.6207C93.448 74.8572 93.2754 74.9143 93.1603 74.9715C92.9877 75.0286 92.8726 75.1429 92.7575 75.2572C92.6424 75.3715 92.5274 75.4857 92.4698 75.6572C92.4123 75.8286 92.3547 75.9429 92.3547 76.1143V80C92.3547 80.1715 92.4123 80.3429 92.4698 80.4572C92.5274 80.6286 92.6424 80.7429 92.7575 80.8572C92.8726 80.9715 92.9877 81.0857 93.1603 81.1429C93.3329 81.2 93.448 81.2572 93.6207 81.2572H100.641C100.813 81.2572 100.986 81.2 101.101 81.1429C101.274 81.0857 101.389 80.9715 101.504 80.8572C101.619 80.7429 101.734 80.6286 101.792 80.4572C101.849 80.2858 101.907 80.1715 101.907 80V76.1143C101.907 75.7715 101.792 75.4857 101.561 75.2572C101.274 74.9715 100.986 74.8572 100.641 74.8572Z" fill="#292C33"/>
<path d="M6.04184 38.8572H5.17871V69.7143H6.04184V38.8572Z" fill="#292C33"/>
<path d="M97.5335 38.8572H96.6704V69.7143H97.5335V38.8572Z" fill="#292C33"/>
<path d="M50.9247 13.1428H50.0615V48H50.9247V13.1428Z" fill="#292C33"/>
<path d="M60.1629 6.01367L59.6772 6.85704L89.6508 23.8723L90.1365 23.0289L60.1629 6.01367Z" fill="#292C33"/>
<path d="M40.8601 6.33325L10.9329 23.4286L11.4206 24.2706L41.3478 7.17525L40.8601 6.33325Z" fill="#292C33"/>
<path d="M60.1629 105.685L59.6772 104.842L89.6508 87.8269L90.1365 88.6703L60.1629 105.685Z" fill="#292C33"/>
<path d="M40.8601 105.366L10.9329 88.2708L11.4206 87.4285L41.3478 104.524L40.8601 105.366Z" fill="#292C33"/>
<path d="M60.1629 60.5715L59.6772 61.415L88.1524 77.5795L88.6375 76.7361L60.1629 60.5715Z" fill="#292C33"/>
<path d="M41.0901 60.3308L12.6592 76.5714L13.1469 77.4137L41.5778 61.1731L41.0901 60.3308Z" fill="#292C33"/>
<path d="M45.8032 91.6571C45.8608 92.4 44.9977 93.4857 43.6167 94.3428C42.063 95.3143 40.2792 95.8286 38.4954 95.8857C36.6541 95.9428 34.8703 95.4857 33.2591 94.6286C30.4396 92.9714 30.0368 90.5714 33.4893 88.4C34.7552 87.6571 36.1362 87.2 37.6323 87.0857L38.2653 88.6857C37.3446 88.8 36.4239 89.0857 35.5608 89.6C34.0072 90.5714 33.777 91.9428 35.6759 93.0857C36.5965 93.6 37.6323 93.8286 38.7256 93.8286C39.7613 93.8286 40.7971 93.4857 41.7178 92.9714C42.4083 92.5714 42.9837 91.9428 43.2139 91.2L45.8032 91.6571Z" fill="#292C33"/>
<path d="M52.7659 83.7714C55.7581 85.5428 55.0101 87.4285 52.8235 88.7428C51.5575 89.5999 50.0615 90.0571 48.5078 90.0571C46.9542 90.1142 45.4581 89.7142 44.1346 88.9142L38.438 85.5999L40.7397 84.1714L45.9184 87.1999C46.6089 87.7142 47.4145 87.9999 48.2777 88.0571C49.1408 88.1142 49.9464 87.8856 50.6944 87.4856C52.0754 86.6285 51.5 85.7714 49.9464 84.8571L44.7101 81.7142L47.0117 80.2856L52.7659 83.7714Z" fill="#292C33"/>
<path d="M57.5995 80.9142L59.4408 81.9428C59.7285 81.8285 60.0163 81.7142 60.304 81.5428C61.2246 80.9714 61.2822 80.5142 60.5917 80.1142C60.2464 79.9428 59.9012 79.8857 59.4984 79.9428C59.1531 80 58.7503 80.1142 58.4626 80.3428L57.5995 80.9142ZM53.9168 78.6857L55.7006 79.7142L56.5062 79.2571C57.0816 78.9142 57.3118 78.4571 56.6213 78.0571C56.276 77.8857 55.9308 77.8285 55.5855 77.8857C55.2403 77.9428 54.895 78.0571 54.6073 78.2285C54.3196 78.4 54.0894 78.5142 53.9168 78.6857ZM49.4861 78.9142C50.004 78.5714 51.385 77.6571 52.4783 76.9714C54.895 75.4857 56.9665 75.5428 58.29 76.2857C59.3258 76.9142 59.5559 77.5428 59.3257 78.2857C59.9587 78.1142 60.5917 78.0571 61.2246 78.1142C61.8576 78.1714 62.4906 78.4 63.0084 78.6857C65.1375 79.8857 64.3894 81.4857 62.2028 82.8571C61.2246 83.4285 59.8436 84.2285 59.2107 84.5714L49.4861 78.9142Z" fill="#292C33"/>
<path d="M58.405 73.4286L64.4469 69.7715L66.5184 70.9715L62.8358 73.2572L64.562 74.2286L67.7844 72.2858L69.9134 73.4858L66.6335 75.4858L68.4173 76.5143L72.2151 74.1715L74.3441 75.4286L68.1872 79.1429L58.405 73.4286Z" fill="#292C33"/>
<path d="M30.3248 30.4001V21.7144L22.5566 26.0001L30.3248 30.4001Z" fill="#292C33"/>
<path d="M21.866 26.9714V63.0286L30.3246 58.3429V31.7714L21.866 26.9714Z" fill="#292C33"/>
<path d="M69.3955 59.0285L77.0486 63.3713V37.4856L69.3955 41.7713V59.0285Z" fill="#292C33"/>
<path d="M60.8794 19.4856V26.9142L69.3956 31.7713V40.5142L77.0487 36.1713L80.4436 38.057L87.0034 34.3427L60.8794 19.4856Z" fill="#292C33"/>
<path d="M81.5369 38.6858L87.1184 41.8287V35.6001L81.5369 38.6858Z" fill="#292C33"/>
</g>
<path d="M134.992 49V32.2H138.88V49H134.992ZM146.347 49V35.368H140.971V32.2H155.611V35.368H150.235V49H146.347ZM156.068 43.744V40.744H162.86V43.744H156.068ZM175.022 49L170.702 42.88L173.75 41.08L179.438 49H175.022ZM165.878 49V36.088H169.622V49H165.878ZM168.518 44.104V41.104H173.03V44.104H168.518ZM174.11 42.976L170.606 42.592L175.142 36.088H179.126L174.11 42.976ZM182.302 53.848C181.63 53.848 180.966 53.744 180.31 53.536C179.654 53.328 179.118 53.04 178.702 52.672L180.07 50.008C180.358 50.264 180.686 50.464 181.054 50.608C181.438 50.752 181.814 50.824 182.182 50.824C182.71 50.824 183.126 50.696 183.43 50.44C183.75 50.2 184.038 49.792 184.294 49.216L184.966 47.632L185.254 47.224L189.886 36.088H193.486L187.654 49.792C187.238 50.832 186.758 51.648 186.214 52.24C185.686 52.832 185.094 53.248 184.438 53.488C183.798 53.728 183.086 53.848 182.302 53.848ZM184.51 49.504L178.75 36.088H182.614L187.078 46.888L184.51 49.504ZM201.63 49.288C200.574 49.288 199.614 49.136 198.75 48.832C197.886 48.512 197.134 48.024 196.494 47.368C195.87 46.696 195.382 45.84 195.03 44.8C194.694 43.76 194.526 42.52 194.526 41.08C194.526 40.056 194.614 39.12 194.79 38.272C194.966 37.424 195.23 36.656 195.582 35.968C195.934 35.264 196.382 34.648 196.926 34.12C197.486 33.576 198.134 33.128 198.87 32.776C199.622 32.408 200.47 32.128 201.414 31.936L207.558 30.712L208.062 33.928L202.638 35.008C202.318 35.072 201.95 35.16 201.534 35.272C201.134 35.368 200.726 35.52 200.31 35.728C199.91 35.936 199.534 36.232 199.182 36.616C198.846 36.984 198.574 37.472 198.366 38.08C198.158 38.672 198.054 39.408 198.054 40.288C198.054 40.56 198.062 40.768 198.078 40.912C198.11 41.056 198.134 41.208 198.15 41.368C198.182 41.528 198.198 41.776 198.198 42.112L196.998 40.936C197.35 40.184 197.798 39.544 198.342 39.016C198.902 38.488 199.542 38.088 200.262 37.816C200.998 37.528 201.814 37.384 202.71 37.384C203.926 37.384 204.99 37.632 205.902 38.128C206.83 38.608 207.55 39.288 208.062 40.168C208.574 41.048 208.83 42.048 208.83 43.168C208.83 44.384 208.526 45.456 207.918 46.384C207.31 47.296 206.462 48.008 205.374 48.52C204.302 49.032 203.054 49.288 201.63 49.288ZM201.822 46.384C202.446 46.384 202.998 46.248 203.478 45.976C203.958 45.688 204.326 45.312 204.582 44.848C204.854 44.368 204.99 43.832 204.99 43.24C204.99 42.664 204.854 42.152 204.582 41.704C204.326 41.256 203.958 40.904 203.478 40.648C202.998 40.392 202.438 40.264 201.798 40.264C201.174 40.264 200.614 40.392 200.118 40.648C199.622 40.888 199.238 41.224 198.966 41.656C198.694 42.088 198.558 42.592 198.558 43.168C198.558 43.76 198.694 44.304 198.966 44.8C199.254 45.28 199.638 45.664 200.118 45.952C200.614 46.24 201.182 46.384 201.822 46.384Z" fill="black"/>
<path d="M134.512 68V59.6H135.124V67.448H140.536V59.6H141.148V68H134.512ZM141.928 70.028V67.808L142.096 68H140.536V67.448H142.504V70.028H141.928ZM146.579 68.048C145.947 68.048 145.387 67.912 144.899 67.64C144.419 67.368 144.039 66.992 143.759 66.512C143.487 66.032 143.351 65.484 143.351 64.868C143.351 64.244 143.479 63.696 143.735 63.224C143.999 62.744 144.359 62.368 144.815 62.096C145.271 61.824 145.783 61.688 146.351 61.688C146.919 61.688 147.427 61.82 147.875 62.084C148.331 62.348 148.687 62.72 148.943 63.2C149.207 63.672 149.339 64.22 149.339 64.844C149.339 64.868 149.335 64.896 149.327 64.928C149.327 64.952 149.327 64.98 149.327 65.012H143.795V64.544H149.003L148.763 64.772C148.771 64.284 148.667 63.848 148.451 63.464C148.243 63.072 147.959 62.768 147.599 62.552C147.239 62.328 146.823 62.216 146.351 62.216C145.887 62.216 145.471 62.328 145.103 62.552C144.743 62.768 144.459 63.072 144.251 63.464C144.043 63.848 143.939 64.288 143.939 64.784V64.892C143.939 65.404 144.051 65.86 144.275 66.26C144.507 66.652 144.823 66.96 145.223 67.184C145.623 67.4 146.079 67.508 146.591 67.508C146.991 67.508 147.363 67.436 147.707 67.292C148.059 67.148 148.355 66.928 148.595 66.632L148.943 67.028C148.671 67.364 148.327 67.62 147.911 67.796C147.503 67.964 147.059 68.048 146.579 68.048ZM151.3 68V61.736H151.9V64.592H156.148V61.736H156.748V68H156.148V65.12H151.9V68H151.3ZM160.479 68V62.096L160.647 62.276H158.031V61.736H163.527V62.276H160.911L161.079 62.096V68H160.479ZM167.968 68.048C167.416 68.048 166.916 67.92 166.468 67.664C166.028 67.408 165.676 67.044 165.412 66.572C165.156 66.092 165.028 65.524 165.028 64.868C165.028 64.212 165.156 63.648 165.412 63.176C165.676 62.696 166.028 62.328 166.468 62.072C166.916 61.816 167.416 61.688 167.968 61.688C168.56 61.688 169.088 61.824 169.552 62.096C170.024 62.36 170.392 62.732 170.656 63.212C170.928 63.692 171.064 64.244 171.064 64.868C171.064 65.492 170.928 66.044 170.656 66.524C170.392 67.004 170.024 67.38 169.552 67.652C169.088 67.916 168.56 68.048 167.968 68.048ZM164.824 70.328V61.736H165.4V63.788L165.304 64.88L165.424 65.972V70.328H164.824ZM167.932 67.508C168.412 67.508 168.844 67.4 169.228 67.184C169.612 66.96 169.912 66.648 170.128 66.248C170.352 65.848 170.464 65.388 170.464 64.868C170.464 64.34 170.352 63.88 170.128 63.488C169.912 63.088 169.612 62.78 169.228 62.564C168.844 62.34 168.412 62.228 167.932 62.228C167.452 62.228 167.02 62.34 166.636 62.564C166.26 62.78 165.96 63.088 165.736 63.488C165.52 63.88 165.412 64.34 165.412 64.868C165.412 65.388 165.52 65.848 165.736 66.248C165.96 66.648 166.26 66.96 166.636 67.184C167.02 67.4 167.452 67.508 167.932 67.508ZM179.027 68V61.736H179.627V68H179.027ZM175.487 64.016C176.271 64.024 176.863 64.196 177.263 64.532C177.671 64.86 177.875 65.344 177.875 65.984C177.875 66.648 177.659 67.156 177.227 67.508C176.795 67.86 176.171 68.032 175.355 68.024L173.015 68V61.736H173.615V63.992L175.487 64.016ZM175.331 67.544C175.971 67.552 176.455 67.424 176.783 67.16C177.111 66.896 177.275 66.504 177.275 65.984C177.275 65.48 177.111 65.104 176.783 64.856C176.463 64.608 175.979 64.48 175.331 64.472L173.615 64.46V67.52L175.331 67.544ZM185.284 68V61.736H185.884V67.472H190.036V61.736H190.636V68H185.284ZM191.104 69.56V67.916L191.272 68H190.036V67.472H191.68V69.56H191.104ZM193.429 68V61.736H194.029V67.076L198.493 61.736H199.021V68H198.421V62.66L193.957 68H193.429ZM204.945 68.06C204.945 68.06 204.933 68.06 204.909 68.06C204.885 68.06 204.865 68.06 204.849 68.06C204.833 68.06 204.817 68.06 204.801 68.06C203.585 68.052 202.637 67.768 201.957 67.208C201.285 66.648 200.949 65.864 200.949 64.856C200.949 63.856 201.289 63.08 201.969 62.528C202.657 61.968 203.617 61.688 204.849 61.688C204.857 61.688 204.869 61.688 204.885 61.688C204.901 61.688 204.917 61.688 204.933 61.688C204.949 61.688 204.961 61.688 204.969 61.688C206.201 61.688 207.161 61.968 207.849 62.528C208.537 63.08 208.881 63.856 208.881 64.856C208.881 65.872 208.533 66.66 207.837 67.22C207.149 67.78 206.185 68.06 204.945 68.06ZM204.945 67.52C205.665 67.52 206.273 67.416 206.769 67.208C207.265 67 207.641 66.7 207.897 66.308C208.161 65.908 208.293 65.424 208.293 64.856C208.293 64.296 208.161 63.82 207.897 63.428C207.641 63.036 207.265 62.74 206.769 62.54C206.273 62.332 205.665 62.228 204.945 62.228C204.929 62.228 204.909 62.228 204.885 62.228C204.869 62.228 204.853 62.228 204.837 62.228C204.133 62.228 203.533 62.332 203.037 62.54C202.549 62.748 202.177 63.048 201.921 63.44C201.673 63.832 201.549 64.304 201.549 64.856C201.549 65.416 201.677 65.896 201.933 66.296C202.189 66.688 202.561 66.988 203.049 67.196C203.545 67.404 204.145 67.512 204.849 67.52C204.857 67.52 204.869 67.52 204.885 67.52C204.909 67.52 204.929 67.52 204.945 67.52ZM204.621 70.328V59.096H205.209V70.328H204.621ZM213.975 68.048C213.423 68.048 212.923 67.92 212.475 67.664C212.035 67.408 211.683 67.044 211.419 66.572C211.163 66.092 211.035 65.524 211.035 64.868C211.035 64.212 211.163 63.648 211.419 63.176C211.683 62.696 212.035 62.328 212.475 62.072C212.923 61.816 213.423 61.688 213.975 61.688C214.567 61.688 215.095 61.824 215.559 62.096C216.031 62.36 216.399 62.732 216.663 63.212C216.935 63.692 217.071 64.244 217.071 64.868C217.071 65.492 216.935 66.044 216.663 66.524C216.399 67.004 216.031 67.38 215.559 67.652C215.095 67.916 214.567 68.048 213.975 68.048ZM210.831 70.328V61.736H211.407V63.788L211.311 64.88L211.431 65.972V70.328H210.831ZM213.939 67.508C214.419 67.508 214.851 67.4 215.235 67.184C215.619 66.96 215.919 66.648 216.135 66.248C216.359 65.848 216.471 65.388 216.471 64.868C216.471 64.34 216.359 63.88 216.135 63.488C215.919 63.088 215.619 62.78 215.235 62.564C214.851 62.34 214.419 62.228 213.939 62.228C213.459 62.228 213.027 62.34 212.643 62.564C212.267 62.78 211.967 63.088 211.743 63.488C211.527 63.88 211.419 64.34 211.419 64.868C211.419 65.388 211.527 65.848 211.743 66.248C211.967 66.648 212.267 66.96 212.643 67.184C213.027 67.4 213.459 67.508 213.939 67.508ZM221.519 68.048C220.919 68.048 220.383 67.912 219.911 67.64C219.447 67.368 219.075 66.992 218.795 66.512C218.523 66.032 218.387 65.484 218.387 64.868C218.387 64.244 218.523 63.696 218.795 63.224C219.075 62.744 219.447 62.368 219.911 62.096C220.383 61.824 220.919 61.688 221.519 61.688C222.119 61.688 222.655 61.824 223.127 62.096C223.599 62.368 223.971 62.744 224.243 63.224C224.515 63.696 224.651 64.244 224.651 64.868C224.651 65.484 224.515 66.032 224.243 66.512C223.971 66.992 223.599 67.368 223.127 67.64C222.655 67.912 222.119 68.048 221.519 68.048ZM221.519 67.508C221.999 67.508 222.431 67.4 222.815 67.184C223.199 66.96 223.499 66.648 223.715 66.248C223.931 65.848 224.039 65.388 224.039 64.868C224.039 64.34 223.931 63.88 223.715 63.488C223.499 63.088 223.199 62.78 222.815 62.564C222.431 62.34 221.999 62.228 221.519 62.228C221.039 62.228 220.607 62.34 220.223 62.564C219.847 62.78 219.547 63.088 219.323 63.488C219.107 63.88 218.999 64.34 218.999 64.868C218.999 65.388 219.107 65.848 219.323 66.248C219.547 66.648 219.847 66.96 220.223 67.184C220.607 67.4 221.039 67.508 221.519 67.508ZM226.605 68V61.736H229.245C229.933 61.736 230.477 61.872 230.877 62.144C231.277 62.416 231.477 62.812 231.477 63.332C231.477 63.844 231.281 64.232 230.889 64.496C230.505 64.76 230.005 64.892 229.389 64.892L229.557 64.712C230.293 64.712 230.833 64.848 231.177 65.12C231.521 65.392 231.693 65.792 231.693 66.32C231.693 66.856 231.497 67.272 231.105 67.568C230.721 67.856 230.125 68 229.317 68H226.605ZM227.193 67.508H229.305C229.889 67.508 230.333 67.412 230.637 67.22C230.941 67.028 231.093 66.72 231.093 66.296C231.093 65.864 230.957 65.552 230.685 65.36C230.421 65.16 229.993 65.06 229.401 65.06H227.193V67.508ZM227.193 64.592H229.209C229.737 64.592 230.145 64.492 230.433 64.292C230.729 64.092 230.877 63.796 230.877 63.404C230.877 63.012 230.729 62.72 230.433 62.528C230.145 62.328 229.737 62.228 229.209 62.228H227.193V64.592ZM236.319 68.048C235.719 68.048 235.183 67.912 234.711 67.64C234.247 67.368 233.875 66.992 233.595 66.512C233.323 66.032 233.187 65.484 233.187 64.868C233.187 64.244 233.323 63.696 233.595 63.224C233.875 62.744 234.247 62.368 234.711 62.096C235.183 61.824 235.719 61.688 236.319 61.688C236.919 61.688 237.455 61.824 237.927 62.096C238.399 62.368 238.771 62.744 239.043 63.224C239.315 63.696 239.451 64.244 239.451 64.868C239.451 65.484 239.315 66.032 239.043 66.512C238.771 66.992 238.399 67.368 237.927 67.64C237.455 67.912 236.919 68.048 236.319 68.048ZM236.319 67.508C236.799 67.508 237.231 67.4 237.615 67.184C237.999 66.96 238.299 66.648 238.515 66.248C238.731 65.848 238.839 65.388 238.839 64.868C238.839 64.34 238.731 63.88 238.515 63.488C238.299 63.088 237.999 62.78 237.615 62.564C237.231 62.34 236.799 62.228 236.319 62.228C235.839 62.228 235.407 62.34 235.023 62.564C234.647 62.78 234.347 63.088 234.123 63.488C233.907 63.88 233.799 64.34 233.799 64.868C233.799 65.388 233.907 65.848 234.123 66.248C234.347 66.648 234.647 66.96 235.023 67.184C235.407 67.4 235.839 67.508 236.319 67.508ZM241.405 68V61.736H245.689V62.276H241.837L242.005 62.108V68H241.405ZM249.175 68.048C248.575 68.048 248.039 67.912 247.567 67.64C247.103 67.368 246.731 66.992 246.451 66.512C246.179 66.032 246.043 65.484 246.043 64.868C246.043 64.244 246.179 63.696 246.451 63.224C246.731 62.744 247.103 62.368 247.567 62.096C248.039 61.824 248.575 61.688 249.175 61.688C249.775 61.688 250.311 61.824 250.783 62.096C251.255 62.368 251.627 62.744 251.899 63.224C252.171 63.696 252.307 64.244 252.307 64.868C252.307 65.484 252.171 66.032 251.899 66.512C251.627 66.992 251.255 67.368 250.783 67.64C250.311 67.912 249.775 68.048 249.175 68.048ZM249.175 67.508C249.655 67.508 250.087 67.4 250.471 67.184C250.855 66.96 251.155 66.648 251.371 66.248C251.587 65.848 251.695 65.388 251.695 64.868C251.695 64.34 251.587 63.88 251.371 63.488C251.155 63.088 250.855 62.78 250.471 62.564C250.087 62.34 249.655 62.228 249.175 62.228C248.695 62.228 248.263 62.34 247.879 62.564C247.503 62.78 247.203 63.088 246.979 63.488C246.763 63.88 246.655 64.34 246.655 64.868C246.655 65.388 246.763 65.848 246.979 66.248C247.203 66.648 247.503 66.96 247.879 67.184C248.263 67.4 248.695 67.508 249.175 67.508ZM136.792 82.048C136.192 82.048 135.656 81.912 135.184 81.64C134.72 81.368 134.348 80.992 134.068 80.512C133.796 80.032 133.66 79.484 133.66 78.868C133.66 78.244 133.796 77.696 134.068 77.224C134.348 76.744 134.72 76.368 135.184 76.096C135.656 75.824 136.192 75.688 136.792 75.688C137.392 75.688 137.928 75.824 138.4 76.096C138.872 76.368 139.244 76.744 139.516 77.224C139.788 77.696 139.924 78.244 139.924 78.868C139.924 79.484 139.788 80.032 139.516 80.512C139.244 80.992 138.872 81.368 138.4 81.64C137.928 81.912 137.392 82.048 136.792 82.048ZM136.792 81.508C137.272 81.508 137.704 81.4 138.088 81.184C138.472 80.96 138.772 80.648 138.988 80.248C139.204 79.848 139.312 79.388 139.312 78.868C139.312 78.34 139.204 77.88 138.988 77.488C138.772 77.088 138.472 76.78 138.088 76.564C137.704 76.34 137.272 76.228 136.792 76.228C136.312 76.228 135.88 76.34 135.496 76.564C135.12 76.78 134.82 77.088 134.596 77.488C134.38 77.88 134.272 78.34 134.272 78.868C134.272 79.388 134.38 79.848 134.596 80.248C134.82 80.648 135.12 80.96 135.496 81.184C135.88 81.4 136.312 81.508 136.792 81.508ZM144.614 82.06C144.11 82.06 143.662 81.972 143.27 81.796C142.886 81.62 142.558 81.36 142.286 81.016C142.022 80.672 141.818 80.248 141.674 79.744C141.53 79.232 141.458 78.644 141.458 77.98C141.458 77.332 141.522 76.776 141.65 76.312C141.778 75.84 141.946 75.444 142.154 75.124C142.37 74.796 142.614 74.528 142.886 74.32C143.158 74.112 143.438 73.948 143.726 73.828C144.022 73.7 144.314 73.604 144.602 73.54L147.374 72.88L147.47 73.444L144.83 74.056C144.646 74.104 144.43 74.168 144.182 74.248C143.942 74.32 143.694 74.436 143.438 74.596C143.19 74.748 142.958 74.964 142.742 75.244C142.534 75.516 142.362 75.868 142.226 76.3C142.098 76.732 142.034 77.268 142.034 77.908C142.034 78.028 142.038 78.124 142.046 78.196C142.054 78.268 142.062 78.348 142.07 78.436C142.086 78.516 142.102 78.636 142.118 78.796L141.842 78.652C141.89 78.124 142.046 77.66 142.31 77.26C142.574 76.86 142.918 76.548 143.342 76.324C143.766 76.1 144.246 75.988 144.782 75.988C145.366 75.988 145.882 76.116 146.33 76.372C146.786 76.62 147.142 76.972 147.398 77.428C147.654 77.876 147.782 78.396 147.782 78.988C147.782 79.58 147.65 80.108 147.386 80.572C147.13 81.036 146.762 81.4 146.282 81.664C145.81 81.928 145.254 82.06 144.614 82.06ZM144.71 81.544C145.19 81.544 145.614 81.436 145.982 81.22C146.358 80.996 146.65 80.692 146.858 80.308C147.066 79.924 147.17 79.488 147.17 79C147.17 78.512 147.066 78.084 146.858 77.716C146.65 77.348 146.358 77.06 145.982 76.852C145.614 76.636 145.186 76.528 144.698 76.528C144.218 76.528 143.79 76.632 143.414 76.84C143.046 77.048 142.758 77.336 142.55 77.704C142.342 78.072 142.238 78.5 142.238 78.988C142.238 79.476 142.342 79.912 142.55 80.296C142.766 80.68 143.058 80.984 143.426 81.208C143.802 81.432 144.23 81.544 144.71 81.544ZM152.909 82.048C152.357 82.048 151.857 81.92 151.409 81.664C150.969 81.408 150.617 81.044 150.353 80.572C150.097 80.092 149.969 79.524 149.969 78.868C149.969 78.212 150.097 77.648 150.353 77.176C150.617 76.696 150.969 76.328 151.409 76.072C151.857 75.816 152.357 75.688 152.909 75.688C153.501 75.688 154.029 75.824 154.493 76.096C154.965 76.36 155.333 76.732 155.597 77.212C155.869 77.692 156.005 78.244 156.005 78.868C156.005 79.492 155.869 80.044 155.597 80.524C155.333 81.004 154.965 81.38 154.493 81.652C154.029 81.916 153.501 82.048 152.909 82.048ZM149.765 84.328V75.736H150.341V77.788L150.245 78.88L150.365 79.972V84.328H149.765ZM152.873 81.508C153.353 81.508 153.785 81.4 154.169 81.184C154.553 80.96 154.853 80.648 155.069 80.248C155.293 79.848 155.405 79.388 155.405 78.868C155.405 78.34 155.293 77.88 155.069 77.488C154.853 77.088 154.553 76.78 154.169 76.564C153.785 76.34 153.353 76.228 152.873 76.228C152.393 76.228 151.961 76.34 151.577 76.564C151.201 76.78 150.901 77.088 150.677 77.488C150.461 77.88 150.353 78.34 150.353 78.868C150.353 79.388 150.461 79.848 150.677 80.248C150.901 80.648 151.201 80.96 151.577 81.184C151.961 81.4 152.393 81.508 152.873 81.508ZM161.845 82V80.572L161.821 80.356V78.004C161.821 77.42 161.661 76.976 161.341 76.672C161.029 76.368 160.569 76.216 159.961 76.216C159.529 76.216 159.125 76.292 158.749 76.444C158.381 76.588 158.065 76.776 157.801 77.008L157.501 76.576C157.813 76.296 158.189 76.08 158.629 75.928C159.069 75.768 159.529 75.688 160.009 75.688C160.785 75.688 161.381 75.884 161.797 76.276C162.213 76.668 162.421 77.252 162.421 78.028V82H161.845ZM159.589 82.048C159.125 82.048 158.721 81.976 158.377 81.832C158.041 81.68 157.781 81.468 157.597 81.196C157.421 80.924 157.333 80.612 157.333 80.26C157.333 79.94 157.405 79.652 157.549 79.396C157.701 79.132 157.949 78.92 158.293 78.76C158.637 78.592 159.097 78.508 159.673 78.508H161.977V78.976H159.685C159.037 78.976 158.581 79.096 158.317 79.336C158.061 79.576 157.933 79.876 157.933 80.236C157.933 80.636 158.085 80.956 158.389 81.196C158.693 81.436 159.121 81.556 159.673 81.556C160.201 81.556 160.645 81.436 161.005 81.196C161.373 80.956 161.645 80.608 161.821 80.152L161.989 80.56C161.821 81.016 161.533 81.38 161.125 81.652C160.725 81.916 160.213 82.048 159.589 82.048ZM166.254 82.06C165.822 82.06 165.386 81.992 164.946 81.856C164.506 81.72 164.118 81.512 163.782 81.232L164.01 80.788C164.314 81.044 164.666 81.236 165.066 81.364C165.466 81.484 165.866 81.54 166.266 81.532C166.674 81.532 167.03 81.472 167.334 81.352C167.646 81.232 167.886 81.068 168.054 80.86C168.222 80.652 168.306 80.42 168.306 80.164C168.306 79.788 168.138 79.496 167.802 79.288C167.466 79.08 167.006 78.976 166.422 78.976H165.414V78.52H166.398C166.734 78.52 167.03 78.476 167.286 78.388C167.55 78.3 167.754 78.172 167.898 78.004C168.05 77.828 168.126 77.624 168.126 77.392C168.126 77.136 168.038 76.92 167.862 76.744C167.694 76.56 167.462 76.424 167.166 76.336C166.878 76.248 166.554 76.204 166.194 76.204C165.882 76.212 165.558 76.26 165.222 76.348C164.894 76.436 164.57 76.568 164.25 76.744L164.058 76.264C164.41 76.072 164.766 75.928 165.126 75.832C165.486 75.736 165.85 75.684 166.218 75.676C166.682 75.668 167.106 75.732 167.49 75.868C167.874 75.996 168.178 76.184 168.402 76.432C168.626 76.672 168.738 76.964 168.738 77.308C168.738 77.62 168.642 77.892 168.45 78.124C168.266 78.348 168.01 78.524 167.682 78.652C167.362 78.78 167.002 78.844 166.602 78.844L166.65 78.652C167.37 78.652 167.926 78.792 168.318 79.072C168.718 79.352 168.918 79.728 168.918 80.2C168.918 80.576 168.798 80.904 168.558 81.184C168.318 81.464 167.994 81.68 167.586 81.832C167.186 81.984 166.742 82.06 166.254 82.06ZM173.519 82.048C172.919 82.048 172.383 81.912 171.911 81.64C171.447 81.368 171.075 80.992 170.795 80.512C170.523 80.032 170.387 79.484 170.387 78.868C170.387 78.244 170.523 77.696 170.795 77.224C171.075 76.744 171.447 76.368 171.911 76.096C172.383 75.824 172.919 75.688 173.519 75.688C174.119 75.688 174.655 75.824 175.127 76.096C175.599 76.368 175.971 76.744 176.243 77.224C176.515 77.696 176.651 78.244 176.651 78.868C176.651 79.484 176.515 80.032 176.243 80.512C175.971 80.992 175.599 81.368 175.127 81.64C174.655 81.912 174.119 82.048 173.519 82.048ZM173.519 81.508C173.999 81.508 174.431 81.4 174.815 81.184C175.199 80.96 175.499 80.648 175.715 80.248C175.931 79.848 176.039 79.388 176.039 78.868C176.039 78.34 175.931 77.88 175.715 77.488C175.499 77.088 175.199 76.78 174.815 76.564C174.431 76.34 173.999 76.228 173.519 76.228C173.039 76.228 172.607 76.34 172.223 76.564C171.847 76.78 171.547 77.088 171.323 77.488C171.107 77.88 170.999 78.34 170.999 78.868C170.999 79.388 171.107 79.848 171.323 80.248C171.547 80.648 171.847 80.96 172.223 81.184C172.607 81.4 173.039 81.508 173.519 81.508ZM178.605 82V75.736H181.245C181.933 75.736 182.477 75.872 182.877 76.144C183.277 76.416 183.477 76.812 183.477 77.332C183.477 77.844 183.281 78.232 182.889 78.496C182.505 78.76 182.005 78.892 181.389 78.892L181.557 78.712C182.293 78.712 182.833 78.848 183.177 79.12C183.521 79.392 183.693 79.792 183.693 80.32C183.693 80.856 183.497 81.272 183.105 81.568C182.721 81.856 182.125 82 181.317 82H178.605ZM179.193 81.508H181.305C181.889 81.508 182.333 81.412 182.637 81.22C182.941 81.028 183.093 80.72 183.093 80.296C183.093 79.864 182.957 79.552 182.685 79.36C182.421 79.16 181.993 79.06 181.401 79.06H179.193V81.508ZM179.193 78.592H181.209C181.737 78.592 182.145 78.492 182.433 78.292C182.729 78.092 182.877 77.796 182.877 77.404C182.877 77.012 182.729 76.72 182.433 76.528C182.145 76.328 181.737 76.228 181.209 76.228H179.193V78.592ZM189.735 82V80.572L189.711 80.356V78.004C189.711 77.42 189.551 76.976 189.231 76.672C188.919 76.368 188.459 76.216 187.851 76.216C187.419 76.216 187.015 76.292 186.639 76.444C186.271 76.588 185.955 76.776 185.691 77.008L185.391 76.576C185.703 76.296 186.079 76.08 186.519 75.928C186.959 75.768 187.419 75.688 187.899 75.688C188.675 75.688 189.271 75.884 189.687 76.276C190.103 76.668 190.311 77.252 190.311 78.028V82H189.735ZM187.479 82.048C187.015 82.048 186.611 81.976 186.267 81.832C185.931 81.68 185.671 81.468 185.487 81.196C185.311 80.924 185.223 80.612 185.223 80.26C185.223 79.94 185.295 79.652 185.439 79.396C185.591 79.132 185.839 78.92 186.183 78.76C186.527 78.592 186.987 78.508 187.563 78.508H189.867V78.976H187.575C186.927 78.976 186.471 79.096 186.207 79.336C185.951 79.576 185.823 79.876 185.823 80.236C185.823 80.636 185.975 80.956 186.279 81.196C186.583 81.436 187.011 81.556 187.563 81.556C188.091 81.556 188.535 81.436 188.895 81.196C189.263 80.956 189.535 80.608 189.711 80.152L189.879 80.56C189.711 81.016 189.423 81.38 189.015 81.652C188.615 81.916 188.103 82.048 187.479 82.048ZM192.749 82V75.736H193.349V78.592H197.597V75.736H198.197V82H197.597V79.12H193.349V82H192.749ZM200.788 82V75.736H201.388V81.076L205.852 75.736H206.38V82H205.78V76.66L201.316 82H200.788ZM213.036 82V79.696L213.168 79.84H210.948C210.164 79.84 209.552 79.672 209.112 79.336C208.68 78.992 208.464 78.488 208.464 77.824C208.464 77.12 208.7 76.596 209.172 76.252C209.644 75.908 210.268 75.736 211.044 75.736H213.588V82H213.036ZM208.428 82L210.168 79.588H210.804L209.088 82H208.428ZM213.036 79.528V76.084L213.168 76.264H211.08C210.44 76.264 209.944 76.388 209.592 76.636C209.24 76.884 209.064 77.288 209.064 77.848C209.064 78.872 209.712 79.384 211.008 79.384H213.168L213.036 79.528Z" fill="black"/>
<defs>
<clipPath id="clip0_1338_300">
<rect width="103" height="112" fill="white"/>
</clipPath>
</defs>
</svg>
