<svg width="239" height="260" viewBox="0 0 239 260" fill="none" xmlns="http://www.w3.org/2000/svg">
<path d="M119.099 22.0205H114.827C114.426 22.0205 114.159 22.0205 114.159 21.7551C114.293 21.4898 114.426 21.0919 114.56 20.8266C114.56 20.6939 114.827 20.5613 115.227 20.5613H118.699C118.832 20.5613 118.966 20.5613 119.099 20.5613C119.233 20.5613 119.233 20.6939 119.366 20.8266C119.5 21.0919 119.634 21.4898 119.767 21.7551C119.634 21.8878 119.366 22.0205 119.099 22.0205ZM128.045 17.3776C127.778 16.9796 127.244 16.5817 126.71 16.3164C126.176 16.0511 125.642 15.9184 125.108 16.0511H108.952C107.35 16.0511 106.549 16.449 106.015 17.3776C105.213 18.7041 104.546 20.1633 104.145 21.6225C104.145 22.5511 105.48 22.949 107.083 22.949H127.111C128.713 22.949 129.915 22.2858 130.048 21.6225C129.514 20.1633 128.846 18.7041 128.045 17.3776Z" fill="#283D70"/>
<path d="M124.841 4.5102H115.628V3.44898H124.841V4.5102ZM124.841 6.76531H115.628V5.70408H124.841V6.76531ZM124.841 8.88775H115.628V7.82653H124.841V8.88775ZM124.841 11.0102H109.352V10.0816H124.707V11.0102H124.841ZM109.352 3.44898H114.293V8.7551H109.352V3.44898ZM125.241 0H108.952C108.551 0 108.151 0.132653 107.884 0.265306C107.483 0.397959 107.216 0.663265 106.949 0.928571C106.682 1.19388 106.415 1.45918 106.281 1.85714C106.148 2.2551 106.014 2.52041 106.014 2.91837V11.9388C106.014 12.7347 106.281 13.398 106.816 13.9286C107.35 14.4592 108.151 14.7245 108.818 14.7245H125.108C125.508 14.7245 125.909 14.5918 126.176 14.4592C126.576 14.3265 126.843 14.0612 127.11 13.7959C127.378 13.5306 127.645 13.2653 127.778 12.8673C127.912 12.4694 128.045 12.2041 128.045 11.8061V2.91837C128.045 2.52041 127.912 2.12245 127.778 1.85714C127.645 1.45918 127.378 1.19388 127.11 0.928571C126.843 0.663265 126.576 0.397959 126.176 0.265306C125.909 0.132653 125.642 0 125.241 0Z" fill="#283D70"/>
<path d="M119.099 144.592H114.827C114.426 144.592 114.159 144.592 114.159 144.326C114.293 144.061 114.426 143.663 114.56 143.398C114.56 143.265 114.827 143.133 115.227 143.133H118.699C118.832 143.133 118.966 143.133 119.099 143.133C119.233 143.133 119.233 143.265 119.366 143.398C119.5 143.663 119.634 144.061 119.767 144.326C119.634 144.459 119.366 144.592 119.099 144.592ZM128.045 139.949C127.778 139.551 127.244 139.153 126.844 138.888C126.31 138.622 125.775 138.49 125.241 138.622H108.952C107.35 138.622 106.549 139.153 106.015 139.949C105.213 141.275 104.546 142.735 104.145 144.194C104.145 145.122 105.48 145.52 107.083 145.52H127.111C128.713 145.52 129.915 144.857 130.048 144.194C129.514 142.735 128.846 141.275 128.045 139.949Z" fill="#283D70"/>
<path d="M124.841 127.082H115.628V126.021H124.841V127.082ZM124.841 129.337H115.628V128.276H124.841V129.337ZM124.841 131.459H115.628V130.398H124.841V131.459ZM124.841 133.582H109.352V132.653H124.707V133.582H124.841ZM109.352 126.021H114.293V131.327H109.352V126.021ZM125.241 122.572H108.952C108.151 122.572 107.483 122.837 106.949 123.367C106.415 123.898 106.148 124.694 106.148 125.357V134.378C106.148 134.776 106.281 135.174 106.415 135.439C106.549 135.837 106.816 136.102 107.083 136.367C107.35 136.633 107.617 136.898 108.017 137.031C108.418 137.163 108.685 137.296 109.085 137.296H125.375C125.775 137.296 126.176 137.163 126.443 137.031C126.843 136.898 127.111 136.633 127.378 136.367C127.645 136.102 127.912 135.837 128.045 135.439C128.179 135.041 128.312 134.776 128.312 134.378V125.357C128.312 124.959 128.179 124.561 128.045 124.296C127.912 123.898 127.645 123.633 127.378 123.367C127.111 123.102 126.843 122.837 126.443 122.704C125.909 122.704 125.642 122.572 125.241 122.572Z" fill="#283D70"/>
<path d="M119.099 257.878H114.827C114.426 257.878 114.159 257.878 114.159 257.612C114.293 257.347 114.426 256.949 114.56 256.684C114.56 256.551 114.827 256.418 115.227 256.418H118.699C118.832 256.418 118.966 256.418 119.099 256.418C119.233 256.418 119.233 256.551 119.366 256.684C119.5 256.949 119.634 257.347 119.767 257.612C119.634 257.745 119.366 257.878 119.099 257.878ZM128.045 253.235C127.778 252.837 127.244 252.439 126.71 252.174C126.176 251.908 125.642 251.776 125.108 251.908H108.952C107.35 251.908 106.549 252.439 106.015 253.235C105.213 254.561 104.546 256.02 104.145 257.48C104.145 258.408 105.48 258.806 107.083 258.806H127.111C128.713 258.806 129.915 258.143 130.048 257.48C129.514 256.02 128.846 254.561 128.045 253.235Z" fill="#283D70"/>
<path d="M124.841 240.367H115.628V239.306H124.841V240.367ZM124.841 242.622H115.628V241.694H124.841V242.622ZM124.841 244.745H115.628V243.684H124.841V244.745ZM124.841 247H109.352V245.939H124.707V247H124.841ZM109.352 239.439H114.293V244.745H109.352V239.439ZM125.241 235.857H108.952C108.551 235.857 108.151 235.99 107.884 236.122C107.483 236.255 107.216 236.52 106.949 236.786C106.682 237.051 106.415 237.316 106.281 237.714C106.148 238.112 106.014 238.378 106.014 238.776V247.796C106.014 248.592 106.281 249.255 106.816 249.786C107.35 250.316 108.151 250.582 108.818 250.582H125.108C125.508 250.582 125.909 250.449 126.176 250.316C126.576 250.184 126.843 249.918 127.11 249.653C127.378 249.388 127.645 249.122 127.778 248.725C127.912 248.327 128.045 248.061 128.045 247.663V238.776C128.045 238.378 127.912 237.98 127.778 237.714C127.645 237.316 127.378 237.051 127.11 236.786C126.843 236.52 126.576 236.255 126.176 236.122C125.909 235.99 125.642 235.857 125.241 235.857Z" fill="#283D70"/>
<path d="M15.0877 82.2448H10.6816C10.281 82.2448 10.014 82.2448 10.014 81.9795C10.1475 81.7142 10.281 81.3162 10.4145 81.0509C10.4145 80.9183 10.6816 80.7856 11.0821 80.7856H14.5536C14.6872 80.7856 14.8207 80.7856 14.9542 80.7856C15.0877 80.7856 15.0877 80.9183 15.2212 81.0509C15.3547 81.3162 15.4883 81.5816 15.6218 81.9795C15.7553 82.1122 15.4883 82.2448 15.0877 82.2448ZM24.167 77.602C23.9 77.204 23.3659 76.806 22.9654 76.5407C22.4313 76.2754 21.8972 76.1428 21.3631 76.2754H4.94022C3.33799 76.2754 2.53687 76.806 2.00279 77.602C1.20168 78.9285 0.534078 80.3877 0 81.8469C0 82.7754 1.3352 83.1734 2.93743 83.1734H23.0989C24.7011 83.1734 25.9028 82.5101 26.0363 81.8469C25.6358 80.3877 24.9682 78.9285 24.167 77.602Z" fill="#283D70"/>
<path d="M20.8289 64.7348H11.6161V63.6736H20.8289V64.7348ZM20.8289 66.9899H11.6161V66.0613H20.8289V66.9899ZM20.8289 69.1124H11.6161V68.1838H20.8289V69.1124ZM20.8289 71.2348H5.47419V70.3062H20.8289V71.2348ZM5.34067 63.8062H10.1474V69.1124H5.34067V63.8062ZM21.2295 60.2246H4.94012C4.53956 60.2246 4.139 60.3573 3.87196 60.4899C3.4714 60.6226 3.20436 60.8879 2.93732 61.1532C2.67028 61.4185 2.40324 61.6838 2.26972 62.0817C2.13621 62.4797 2.00269 62.745 2.00269 63.143V72.1634C2.00269 72.5613 2.13621 72.9593 2.26972 73.2246C2.40324 73.6226 2.67028 73.8879 2.93732 74.1532C3.20436 74.4185 3.4714 74.6838 3.87196 74.8164C4.27252 74.9491 4.53956 75.0817 4.94012 75.0817H21.2295C22.0306 75.0817 22.6982 74.8164 23.2323 74.2858C23.7664 73.7552 24.0334 72.9593 24.0334 72.296V63.2756C24.0334 62.8777 23.8999 62.4797 23.7664 62.2144C23.6329 61.8164 23.3658 61.5511 23.0988 61.2858C22.8317 61.0205 22.5647 60.7552 22.1641 60.6226C22.0306 60.3573 21.6301 60.2246 21.2295 60.2246Z" fill="#283D70"/>
<path d="M227.384 80.9184H222.978C222.577 80.9184 222.31 80.9184 222.31 80.6531C222.444 80.3878 222.577 79.9898 222.711 79.7245C222.711 79.5919 222.978 79.4592 223.378 79.4592H226.85C226.983 79.4592 227.117 79.4592 227.25 79.4592C227.384 79.4592 227.384 79.5919 227.517 79.7245C227.651 79.9898 227.784 80.2551 227.918 80.6531C228.051 80.7857 227.784 80.9184 227.384 80.9184ZM236.463 76.2755C236.196 75.8776 235.662 75.4796 235.262 75.2143C234.727 74.949 234.193 74.8164 233.659 74.949H217.236C215.634 74.949 214.833 75.4796 214.299 76.2755C213.498 77.6021 212.83 79.0613 212.296 80.5204C212.296 81.449 213.631 81.847 215.234 81.847H235.395C236.997 81.847 238.199 81.1837 238.332 80.5204C237.932 79.0613 237.264 77.6021 236.463 76.2755Z" fill="#283D70"/>
<path d="M233.125 63.4082H223.912V62.3469H233.125V63.4082ZM233.125 65.6633H223.912V64.7347H233.125V65.6633ZM233.125 67.7857H223.912V66.8571H233.125V67.7857ZM233.125 69.9082H217.77V68.9796H233.125V69.9082ZM217.637 62.4796H222.444V67.7857H217.637V62.4796ZM233.526 58.8979H217.236C216.836 58.8979 216.435 59.0306 216.168 59.1633C215.768 59.2959 215.501 59.5612 215.233 59.8265C214.966 60.0918 214.699 60.3571 214.566 60.7551C214.432 61.153 214.299 61.4184 214.299 61.8163V70.8367C214.299 71.2347 214.432 71.6326 214.566 71.8979C214.699 72.2959 214.966 72.5612 215.233 72.8265C215.501 73.0918 215.768 73.3571 216.168 73.4898C216.569 73.6224 216.836 73.7551 217.236 73.7551H233.526C234.327 73.7551 234.994 73.4898 235.528 72.9592C236.063 72.4286 236.33 71.6326 236.33 70.9694V61.949C236.33 61.551 236.196 61.1531 236.063 60.8877C235.929 60.4898 235.662 60.2245 235.395 59.9592C235.128 59.6939 234.861 59.4286 234.46 59.2959C234.327 59.0306 233.926 58.8979 233.526 58.8979Z" fill="#283D70"/>
<path d="M15.0877 193.01H10.6816C10.281 193.01 10.014 192.878 10.014 192.745C10.1475 192.48 10.281 192.082 10.4145 191.816C10.4145 191.684 10.6816 191.551 11.0821 191.551H14.5536C14.6872 191.551 14.8207 191.551 14.9542 191.551C15.0877 191.551 15.0877 191.684 15.2212 191.816C15.3547 192.082 15.4883 192.347 15.6218 192.745C15.7553 192.878 15.4883 193.01 15.0877 193.01ZM24.167 188.367C23.9 187.969 23.3659 187.571 22.9654 187.306C22.4313 187.041 21.8972 186.908 21.3631 187.041H4.94022C3.33799 187.041 2.53687 187.439 2.00279 188.367C1.20168 189.694 0.534078 191.153 0 192.612C0 193.541 1.3352 193.939 2.93743 193.939H23.0989C24.7011 193.939 25.9028 193.276 26.0363 192.612C25.6358 191.02 24.9682 189.694 24.167 188.367Z" fill="#283D70"/>
<path d="M20.8289 175.633H11.6161V174.572H20.8289V175.633ZM20.8289 177.755H11.6161V176.694H20.8289V177.755ZM20.8289 179.878H11.6161V178.816H20.8289V179.878ZM20.8289 182.133H5.47419V181.072H20.8289V182.133ZM5.34067 174.572H10.1474V179.878H5.34067V174.572ZM21.2295 171.123H4.94012C4.53956 171.123 4.139 171.255 3.87196 171.388C3.4714 171.521 3.20436 171.786 2.93732 172.051C2.67028 172.316 2.40324 172.582 2.26972 172.98C2.13621 173.378 2.00269 173.643 2.00269 174.041V183.061C2.00269 183.459 2.13621 183.857 2.26972 184.123C2.40324 184.521 2.67028 184.786 2.93732 185.051C3.20436 185.316 3.4714 185.582 3.87196 185.714C4.27252 185.847 4.53956 185.98 4.94012 185.98H21.2295C21.6301 185.98 22.0306 185.847 22.2977 185.714C22.6982 185.582 22.9653 185.316 23.2323 185.051C23.4993 184.786 23.7664 184.521 23.8999 184.123C24.0334 183.725 24.1669 183.459 24.1669 183.061V174.041C24.1669 173.245 23.8999 172.582 23.3658 172.051C22.6982 171.388 22.0306 171.123 21.2295 171.123Z" fill="#283D70"/>
<path d="M227.384 195.663H222.978C222.577 195.663 222.31 195.531 222.31 195.398C222.444 195.133 222.577 194.735 222.711 194.469C222.711 194.337 222.978 194.204 223.378 194.204H226.85C226.983 194.204 227.117 194.204 227.25 194.204C227.384 194.204 227.384 194.337 227.517 194.469C227.651 194.735 227.784 195 227.918 195.398C228.051 195.531 227.784 195.663 227.384 195.663ZM236.463 191.02C236.196 190.622 235.662 190.224 235.262 189.959C234.727 189.694 234.193 189.561 233.659 189.694H217.236C215.634 189.694 214.833 190.092 214.299 191.02C213.498 192.347 212.83 193.806 212.296 195.265C212.296 196.194 213.631 196.592 215.234 196.592H235.395C236.997 196.592 238.199 195.929 238.332 195.265C237.932 193.673 237.264 192.347 236.463 191.02Z" fill="#283D70"/>
<path d="M233.125 178.286H223.912V177.224H233.125V178.286ZM233.125 180.408H223.912V179.347H233.125V180.408ZM233.125 182.531H223.912V181.469H233.125V182.531ZM233.125 184.786H217.77V183.724H233.125V184.786ZM217.637 177.224H222.444V182.531H217.637V177.224ZM233.526 173.775H217.236C216.836 173.775 216.435 173.908 216.168 174.041C215.768 174.173 215.501 174.439 215.233 174.704C214.966 174.969 214.699 175.235 214.566 175.633C214.432 176.03 214.299 176.296 214.299 176.694V185.714C214.299 186.112 214.432 186.51 214.566 186.775C214.699 187.173 214.966 187.439 215.233 187.704C215.501 187.969 215.768 188.235 216.168 188.367C216.569 188.5 216.836 188.633 217.236 188.633H233.526C233.926 188.633 234.327 188.5 234.594 188.367C234.994 188.235 235.261 187.969 235.528 187.704C235.795 187.439 236.063 187.173 236.196 186.775C236.33 186.377 236.463 186.112 236.463 185.714V176.694C236.463 175.898 236.196 175.235 235.662 174.704C234.994 174.041 234.327 173.775 233.526 173.775Z" fill="#283D70"/>
<path d="M14.0196 90.2041H12.0168V161.837H14.0196V90.2041Z" fill="#283D70"/>
<path d="M226.316 90.2041H224.313V161.837H226.316V90.2041Z" fill="#283D70"/>
<path d="M118.165 30.5103H116.162V111.429H118.165V30.5103Z" fill="#283D70"/>
<path d="M139.601 13.9604L138.474 15.9183L208.025 55.418L209.152 53.4602L139.601 13.9604Z" fill="#283D70"/>
<path d="M94.8115 14.7021L25.3687 54.3877L26.5004 56.3425L95.9432 16.6568L94.8115 14.7021Z" fill="#283D70"/>
<path d="M139.601 245.341L138.474 243.384L208.025 203.884L209.152 205.842L139.601 245.341Z" fill="#283D70"/>
<path d="M94.8115 244.599L25.3687 204.915L26.5004 202.959L95.9432 242.645L94.8115 244.599Z" fill="#283D70"/>
<path d="M139.601 140.612L138.474 142.57L204.548 180.095L205.673 178.137L139.601 140.612Z" fill="#283D70"/>
<path d="M95.3449 140.054L29.3743 177.755L30.506 179.71L96.4767 142.009L95.3449 140.054Z" fill="#283D70"/>
<path d="M106.282 212.776C106.415 214.5 104.412 217.02 101.208 219.01C97.6028 221.265 93.4637 222.459 89.3246 222.592C85.0519 222.725 80.9128 221.663 77.1743 219.674C70.6318 215.827 69.6972 210.255 77.7084 205.214C80.6458 203.49 83.8502 202.429 87.3218 202.163L88.7905 205.878C86.6542 206.143 84.5178 206.806 82.5151 208C78.91 210.255 78.3759 213.439 82.7821 216.092C84.9184 217.286 87.3217 217.816 89.8586 217.816C92.262 217.816 94.6653 217.02 96.8016 215.827C98.4039 214.898 99.7391 213.439 100.273 211.714L106.282 212.776Z" fill="#283D70"/>
<path d="M122.438 194.469C129.381 198.582 127.645 202.959 122.571 206.01C119.634 208 116.162 209.061 112.557 209.061C108.952 209.194 105.481 208.265 102.41 206.408L89.1912 198.714L94.5319 195.398L106.549 202.428C108.151 203.622 110.02 204.286 112.023 204.418C114.026 204.551 115.895 204.02 117.631 203.092C120.835 201.102 119.5 199.112 115.895 196.99L103.745 189.694L109.086 186.377L122.438 194.469Z" fill="#283D70"/>
<path d="M133.653 187.837L137.926 190.225C138.593 189.959 139.261 189.694 139.929 189.296C142.065 187.969 142.198 186.908 140.596 185.98C139.795 185.582 138.994 185.449 138.059 185.582C137.258 185.714 136.324 185.98 135.656 186.51L133.653 187.837ZM125.108 182.663L129.247 185.051L131.116 183.99C132.451 183.194 132.986 182.133 131.383 181.204C130.582 180.806 129.781 180.674 128.98 180.806C128.179 180.939 127.378 181.204 126.71 181.602C126.043 182 125.508 182.265 125.108 182.663ZM114.827 183.194C116.029 182.398 119.233 180.276 121.77 178.684C127.378 175.235 132.184 175.367 135.255 177.092C137.659 178.551 138.193 180.01 137.659 181.735C139.127 181.337 140.596 181.204 142.065 181.337C143.534 181.469 145.002 182 146.204 182.663C151.144 185.449 149.408 189.163 144.335 192.347C142.065 193.674 138.86 195.531 137.392 196.327L114.827 183.194Z" fill="#283D70"/>
<path d="M135.522 170.459L149.542 161.969L154.349 164.755L145.803 170.061L149.809 172.316L157.286 167.806L162.226 170.592L154.616 175.235L158.755 177.623L167.567 172.184L172.507 175.102L158.221 183.725L135.522 170.459Z" fill="#283D70"/>
<path d="M70.365 70.5715V50.4082L52.3398 60.3572L70.365 70.5715Z" fill="#283D70"/>
<path d="M50.7373 62.6123V146.316L70.3647 135.439V73.7552L50.7373 62.6123Z" fill="#283D70"/>
<path d="M161.025 137.031L178.783 147.112V87.0205L161.025 96.9695V137.031Z" fill="#283D70"/>
<path d="M141.264 45.2346V62.4795L161.025 73.755V94.051L178.783 83.9693L186.66 88.3469L201.882 79.7244L141.264 45.2346Z" fill="#283D70"/>
<path d="M189.197 89.8061L202.149 97.102V82.6428L189.197 89.8061Z" fill="#283D70"/>
</svg>
